<?xml version="1.0" encoding="utf-8"?>
<!-- Generator: Adobe Illustrator 24.2.0, SVG Export Plug-In . SVG Version: 6.00 Build 0)  -->
<svg version="1.1" xmlns="http://www.w3.org/2000/svg" xmlns:xlink="http://www.w3.org/1999/xlink" x="0px" y="0px"
	 viewBox="0 0 1024 768" style="enable-background:new 0 0 1024 768;" xml:space="preserve">
<style type="text/css">
	.st0{display:none;}
	.st1{display:inline;fill:none;}
	.st2{fill:none;stroke:#0342AC;stroke-width:2.1183;stroke-miterlimit:10;}
	.st3{fill:#0342AC;}
	.st4{fill:none;stroke:#6CA0F9;stroke-width:7.9005;stroke-linecap:round;stroke-miterlimit:10;}
	.st5{fill:none;stroke:#0342AC;stroke-width:6.254;stroke-linecap:round;stroke-miterlimit:10;}
	.st6{fill:none;stroke:#6DA0F8;stroke-width:7;stroke-linecap:round;stroke-miterlimit:10;}
	.st7{fill:none;stroke:#6DA0F8;stroke-width:7;stroke-linecap:round;stroke-miterlimit:10;stroke-dasharray:24.7002,24.7002;}
</style>
<g id="Layer_1" class="st0">
	
		<image style="display:inline;overflow:visible;" width="2160" height="1620" xlink:href="../Downloads/Untitled_Artwork.jpg"  transform="matrix(3.434123e-04 0.5455 -0.5455 3.434123e-04 984.0284 54.7897)">
	</image>
	<path class="st1" d="M496.8,117.3"/>
</g>
<g id="Layer_2">
	<g>
		<polyline class="st2" points="485.4,181.9 527.8,124.4 472.5,125.9 396.3,162.5 343.8,267.4 		"/>
		<line class="st2" x1="483.6" y1="179.9" x2="474.2" y2="125.4"/>
		<line class="st2" x1="397.5" y1="161.9" x2="476.8" y2="184.9"/>
		<line class="st2" x1="395.6" y1="163.8" x2="398.3" y2="213.3"/>
		<line class="st2" x1="345.2" y1="268.6" x2="396.8" y2="216.8"/>
		<line class="st2" x1="377.9" y1="296.4" x2="397.8" y2="218.1"/>
		<polyline class="st2" points="398,215.8 414.3,273.4 525.5,244.8 		"/>
		<line class="st2" x1="402.1" y1="213.8" x2="526.7" y2="243"/>
		<line class="st2" x1="401.5" y1="211.9" x2="480.2" y2="186.2"/>
		<line class="st2" x1="483.7" y1="185.5" x2="528.4" y2="242.7"/>
		<line class="st2" x1="482.2" y1="183.7" x2="588.1" y2="183.7"/>
		<line class="st2" x1="344.1" y1="270.5" x2="374.8" y2="300.1"/>
		<line class="st2" x1="342.6" y1="271.6" x2="351.7" y2="342.4"/>
		<line class="st2" x1="354.9" y1="341.6" x2="375.9" y2="301.5"/>
		<polyline class="st2" points="380.2,299.5 417.4,329.9 357.4,342.4 		"/>
		<polyline class="st2" points="381.6,298.7 487.9,298.9 526.3,246.9 		"/>
		<polyline class="st2" points="531.1,299.5 527.4,299.5 487.9,298.9 491,337.9 509.8,321.7 530.8,299.7 		"/>
		<polyline class="st2" points="353.2,345.9 372.6,451.3 418.6,409.6 357.8,344.5 		"/>
		<polygon class="st2" points="422.2,404.9 417.4,329.9 446.7,336.9 		"/>
		<polygon class="st2" points="444.2,336.2 478.4,336.9 500.3,397 		"/>
		<polyline class="st2" points="446,338.4 491.3,438.4 499.2,399.9 		"/>
		<polyline class="st2" points="423,407.8 491,440.5 512.2,426.9 528.6,345.7 508.9,355.6 489.9,337.3 499.2,393.8 		"/>
		<line class="st2" x1="514.7" y1="322.5" x2="501" y2="393.8"/>
		<polyline class="st2" points="498.2,397 512.2,426.9 532,449.5 		"/>
		<line class="st2" x1="516.5" y1="318.9" x2="541" y2="318.6"/>
		<circle class="st3" cx="397.9" cy="215.2" r="6.8"/>
		<circle class="st3" cx="481.9" cy="185.3" r="6.8"/>
		<circle class="st3" cx="530" cy="244.6" r="6.8"/>
		<circle class="st3" cx="513.7" cy="318.7" r="6.8"/>
		<circle class="st3" cx="500.4" cy="398.5" r="6.8"/>
		<circle class="st3" cx="419.9" cy="408.3" r="6.8"/>
		<circle class="st3" cx="354.3" cy="342.7" r="6.8"/>
		<circle class="st3" cx="377.5" cy="299.4" r="6.8"/>
		<circle class="st3" cx="344.2" cy="270.4" r="6.8"/>
		<circle class="st3" cx="373" cy="447.6" r="6.8"/>
	</g>
	<g>
		<polyline class="st2" points="575,181.7 532.5,124.2 587.9,125.7 664,162.3 716.5,267.2 		"/>
		<line class="st2" x1="576.8" y1="179.7" x2="586.2" y2="125.2"/>
		<line class="st2" x1="662.9" y1="161.8" x2="583.5" y2="184.7"/>
		<line class="st2" x1="664.7" y1="163.6" x2="662.1" y2="213.2"/>
		<line class="st2" x1="715.1" y1="268.4" x2="663.6" y2="216.6"/>
		<line class="st2" x1="682.5" y1="296.2" x2="662.5" y2="217.9"/>
		<polyline class="st2" points="662.3,215.6 646,273.3 534.9,244.6 		"/>
		<line class="st2" x1="658.2" y1="213.6" x2="533.6" y2="242.8"/>
		<line class="st2" x1="658.9" y1="211.8" x2="580.1" y2="186"/>
		<line class="st2" x1="576.6" y1="185.3" x2="531.9" y2="242.6"/>
		<line class="st2" x1="578.1" y1="183.5" x2="472.3" y2="183.5"/>
		<line class="st2" x1="716.3" y1="270.3" x2="685.6" y2="299.9"/>
		<line class="st2" x1="717.7" y1="271.5" x2="708.6" y2="342.2"/>
		<line class="st2" x1="705.5" y1="341.4" x2="684.4" y2="301.3"/>
		<polyline class="st2" points="646,273.3 680.2,299.3 642.9,329.7 702.9,342.2 		"/>
		<polyline class="st2" points="678.8,298.5 572.4,298.8 534.1,246.7 		"/>
		<polyline class="st2" points="530.5,247.8 530.2,299.3 532.9,299.3 572.4,298.8 569.3,337.7 550.5,321.5 529.9,299.5 		"/>
		<polyline class="st2" points="707.2,345.7 687.7,451.2 641.7,409.4 702.5,344.3 		"/>
		<polygon class="st2" points="638.1,404.7 642.9,329.7 613.6,336.7 		"/>
		<polygon class="st2" points="616.1,336 582,336.7 560,396.8 		"/>
		<polyline class="st2" points="614.3,338.2 569,438.2 561.1,399.7 		"/>
		<polyline class="st2" points="637.4,407.6 569.4,440.4 548.1,426.7 531.5,345.6 551.4,355.5 570.5,337.1 561.1,393.6 		"/>
		<line class="st2" x1="545.6" y1="322.4" x2="559.3" y2="393.6"/>
		<polyline class="st2" points="562.2,396.8 548.1,426.7 528.4,449.4 		"/>
		<line class="st2" x1="543.8" y1="318.8" x2="519.4" y2="318.4"/>
		<circle class="st3" cx="662.5" cy="215" r="6.8"/>
		<circle class="st3" cx="578.4" cy="185.1" r="6.8"/>
		<circle class="st3" cx="530.3" cy="244.4" r="6.8"/>
		<circle class="st3" cx="546.6" cy="318.6" r="6.8"/>
		<circle class="st3" cx="559.9" cy="398.3" r="6.8"/>
		<circle class="st3" cx="640.5" cy="408.1" r="6.8"/>
		<circle class="st3" cx="706.1" cy="342.5" r="6.8"/>
		<circle class="st3" cx="682.8" cy="299.3" r="6.8"/>
		<circle class="st3" cx="716.2" cy="270.2" r="6.8"/>
		<circle class="st3" cx="687.3" cy="447.4" r="6.8"/>
		<circle class="st3" cx="530.7" cy="446.3" r="6.8"/>
	</g>
	<line class="st2" x1="414.3" y1="273.4" x2="377.5" y2="299.4"/>
</g>
<g id="Layer_3">
	<polyline class="st4" points="663.5,89.1 745.8,89.1 745.8,171 	"/>
	<polyline class="st4" points="745.1,578.9 745.1,661.3 663.2,661.3 	"/>
	<polyline class="st4" points="382,87.6 299.6,87.6 299.6,169.6 	"/>
	<polyline class="st4" points="299.3,577.4 299.3,659.8 381.3,659.8 	"/>
</g>
<g id="Layer_5">
</g>
<g id="Layer_6">
	<path class="st5" d="M459.5,605.3c0,0,71.1,34.2,134.6,7.8"/>
	<path class="st5" d="M582.6,487.6c0,34.3-25.2,62.1-56.3,62.1s-56.3-27.8-56.3-62.1"/>
	<path class="st5" d="M532.9,571c-2.4,0.2-4.8,0.3-7.3,0.3c-45.3,0-82.1-37-82.1-82.6"/>
	<path class="st5" d="M449,555.2c-19.5-17.2-31.4-40.5-31.4-66.1"/>
	<path class="st5" d="M532.1,585.2c-27.6,0-53-8.2-72.7-21.8"/>
	<path class="st5" d="M646.7,489.2c0,10.7-2.1,21-6,30.7c-4.5,11.2-11.3,21.4-20.1,30.3c-11.6,11.8-26.5,21.3-43.5,27.4
		c-10.9,3.9-22.6,6.4-34.9,7.3"/>
	<path class="st5" d="M522.6,606.4C454.5,601.2,401,550.5,401,488.8"/>
	<path class="st5" d="M667.4,488.8c0,48.7-33.3,90.5-80.8,108.6c-12.6,4.8-26.3,7.9-40.6,9"/>
	<path class="st5" d="M554.6,492c0,21.3-13.2,38.6-29.6,38.6c-16.3,0-29.6-17.3-29.6-38.6"/>
	<path class="st5" d="M369.3,557.4"/>
	<path class="st5" d="M380.5,488.3c0,0,4.3,86.1,62.7,108.2"/>
	<path class="st5" d="M531.4,492c0,0-6.4,4.4-1,21"/>
	<path class="st5" d="M610.7,607.3c0,0,52.7-13.7,65.1-75.5"/>
	<path class="st5" d="M684.3,490.3c0,0-1.7,18.7-4,28.1"/>
	<g>
		<g>
			<line class="st6" x1="299.4" y1="466.1" x2="312.1" y2="466.1"/>
			<line class="st7" x1="336.8" y1="466.1" x2="719.7" y2="466.1"/>
			<line class="st6" x1="732" y1="466.1" x2="744.7" y2="466.1"/>
		</g>
	</g>
	<path class="st5" d="M556.9,564.6c6.7-0.6,3.5-0.5,9.9-2.4c6-1.8,11.9-4.3,16.8-8.2c5.3-4.3,9.2-10,12.4-16
		c6.3-11.7,10.3-24.5,11.9-37.6c0.4-3.4,0.7-6.8,2.1-9.9s14-7.2,17.5-7.5"/>
</g>
<g id="Layer_7">
</g>
<g id="Layer_4">
</g>
</svg>
