<?xml version="1.0" encoding="UTF-8" standalone="no"?>
<!-- Generator: Adobe Illustrator 24.2.0, SVG Export Plug-In . SVG Version: 6.00 Build 0)  -->

<svg
   xmlns:dc="http://purl.org/dc/elements/1.1/"
   xmlns:cc="http://creativecommons.org/ns#"
   xmlns:rdf="http://www.w3.org/1999/02/22-rdf-syntax-ns#"
   xmlns:svg="http://www.w3.org/2000/svg"
   xmlns="http://www.w3.org/2000/svg"
   xmlns:xlink="http://www.w3.org/1999/xlink"
   xmlns:sodipodi="http://sodipodi.sourceforge.net/DTD/sodipodi-0.dtd"
   xmlns:inkscape="http://www.inkscape.org/namespaces/inkscape"
   version="1.1"
   x="0px"
   y="0px"
   viewBox="0 0 454.40128 581.60132"
   xml:space="preserve"
   id="svg1024"
   sodipodi:docname="eKYC.svg"
   width="454.40128"
   height="581.60132"
   inkscape:version="0.92.4 (5da689c313, 2019-01-14)"><metadata
   id="metadata1030"><rdf:RDF><cc:Work
       rdf:about=""><dc:format>image/svg+xml</dc:format><dc:type
         rdf:resource="http://purl.org/dc/dcmitype/StillImage" /><dc:title></dc:title></cc:Work></rdf:RDF></metadata><defs
   id="defs1028" /><sodipodi:namedview
   pagecolor="#ffffff"
   bordercolor="#666666"
   borderopacity="1"
   objecttolerance="10"
   gridtolerance="10"
   guidetolerance="10"
   inkscape:pageopacity="0"
   inkscape:pageshadow="2"
   inkscape:window-width="1920"
   inkscape:window-height="1001"
   id="namedview1026"
   showgrid="false"
   fit-margin-top="0"
   fit-margin-left="0"
   fit-margin-right="0"
   fit-margin-bottom="0"
   inkscape:zoom="0.53971354"
   inkscape:cx="-97.198375"
   inkscape:cy="205.42926"
   inkscape:window-x="-9"
   inkscape:window-y="-9"
   inkscape:window-maximized="1"
   inkscape:current-layer="svg1024" />
<style
   type="text/css"
   id="style815">
	.st0{display:none;}
	.st1{display:inline;fill:none;}
	.st2{fill:none;stroke:#0342AC;stroke-width:2.1183;stroke-miterlimit:10;}
	.st3{fill:#0342AC;}
	.st4{fill:none;stroke:#6CA0F9;stroke-width:7.9005;stroke-linecap:round;stroke-miterlimit:10;}
	.st5{fill:none;stroke:#0342AC;stroke-width:6.254;stroke-linecap:round;stroke-miterlimit:10;}
	.st6{fill:none;stroke:#6DA0F8;stroke-width:7;stroke-linecap:round;stroke-miterlimit:10;}
	.st7{fill:none;stroke:#6DA0F8;stroke-width:7;stroke-linecap:round;stroke-miterlimit:10;stroke-dasharray:24.7002,24.7002;}
</style>
<g
   id="Layer_1"
   class="st0"
   style="display:none"
   transform="translate(-295.34936,-83.649355)">
	
		<image
   sodipodi:absref="C:\eKYC\frontend\src\assets\../Downloads/Untitled_Artwork.jpg"
   xlink:href="../Downloads/Untitled_Artwork.jpg"
   id="image817"
   transform="matrix(3.434123e-4,0.5455,-0.5455,3.434123e-4,984.0284,54.7897)"
   height="1620"
   width="2160"
   style="display:inline;overflow:visible">
	</image>
	<path
   class="st1"
   d="M 496.8,117.3"
   id="path819"
   inkscape:connector-curvature="0"
   style="display:inline;fill:none" />
</g>
<g
   id="Layer_2"
   transform="translate(-295.34936,-83.649355)">
	<g
   id="g892">
		<polyline
   class="st2"
   points="485.4,181.9 527.8,124.4 472.5,125.9 396.3,162.5 343.8,267.4   "
   id="polyline822"
   style="fill:none;stroke:#0342ac;stroke-width:2.11829996;stroke-miterlimit:10" />
		<line
   class="st2"
   x1="483.60001"
   y1="179.89999"
   x2="474.20001"
   y2="125.4"
   id="line824"
   style="fill:none;stroke:#0342ac;stroke-width:2.11829996;stroke-miterlimit:10" />
		<line
   class="st2"
   x1="397.5"
   y1="161.89999"
   x2="476.79999"
   y2="184.89999"
   id="line826"
   style="fill:none;stroke:#0342ac;stroke-width:2.11829996;stroke-miterlimit:10" />
		<line
   class="st2"
   x1="395.60001"
   y1="163.8"
   x2="398.29999"
   y2="213.3"
   id="line828"
   style="fill:none;stroke:#0342ac;stroke-width:2.11829996;stroke-miterlimit:10" />
		<line
   class="st2"
   x1="345.20001"
   y1="268.60001"
   x2="396.79999"
   y2="216.8"
   id="line830"
   style="fill:none;stroke:#0342ac;stroke-width:2.11829996;stroke-miterlimit:10" />
		<line
   class="st2"
   x1="377.89999"
   y1="296.39999"
   x2="397.79999"
   y2="218.10001"
   id="line832"
   style="fill:none;stroke:#0342ac;stroke-width:2.11829996;stroke-miterlimit:10" />
		<polyline
   class="st2"
   points="398,215.8 414.3,273.4 525.5,244.8   "
   id="polyline834"
   style="fill:none;stroke:#0342ac;stroke-width:2.11829996;stroke-miterlimit:10" />
		<line
   class="st2"
   x1="402.10001"
   y1="213.8"
   x2="526.70001"
   y2="243"
   id="line836"
   style="fill:none;stroke:#0342ac;stroke-width:2.11829996;stroke-miterlimit:10" />
		<line
   class="st2"
   x1="401.5"
   y1="211.89999"
   x2="480.20001"
   y2="186.2"
   id="line838"
   style="fill:none;stroke:#0342ac;stroke-width:2.11829996;stroke-miterlimit:10" />
		<line
   class="st2"
   x1="483.70001"
   y1="185.5"
   x2="528.40002"
   y2="242.7"
   id="line840"
   style="fill:none;stroke:#0342ac;stroke-width:2.11829996;stroke-miterlimit:10" />
		<line
   class="st2"
   x1="482.20001"
   y1="183.7"
   x2="588.09998"
   y2="183.7"
   id="line842"
   style="fill:none;stroke:#0342ac;stroke-width:2.11829996;stroke-miterlimit:10" />
		<line
   class="st2"
   x1="344.10001"
   y1="270.5"
   x2="374.79999"
   y2="300.10001"
   id="line844"
   style="fill:none;stroke:#0342ac;stroke-width:2.11829996;stroke-miterlimit:10" />
		<line
   class="st2"
   x1="342.60001"
   y1="271.60001"
   x2="351.70001"
   y2="342.39999"
   id="line846"
   style="fill:none;stroke:#0342ac;stroke-width:2.11829996;stroke-miterlimit:10" />
		<line
   class="st2"
   x1="354.89999"
   y1="341.60001"
   x2="375.89999"
   y2="301.5"
   id="line848"
   style="fill:none;stroke:#0342ac;stroke-width:2.11829996;stroke-miterlimit:10" />
		<polyline
   class="st2"
   points="380.2,299.5 417.4,329.9 357.4,342.4   "
   id="polyline850"
   style="fill:none;stroke:#0342ac;stroke-width:2.11829996;stroke-miterlimit:10" />
		<polyline
   class="st2"
   points="381.6,298.7 487.9,298.9 526.3,246.9   "
   id="polyline852"
   style="fill:none;stroke:#0342ac;stroke-width:2.11829996;stroke-miterlimit:10" />
		<polyline
   class="st2"
   points="531.1,299.5 527.4,299.5 487.9,298.9 491,337.9 509.8,321.7 530.8,299.7   "
   id="polyline854"
   style="fill:none;stroke:#0342ac;stroke-width:2.11829996;stroke-miterlimit:10" />
		<polyline
   class="st2"
   points="353.2,345.9 372.6,451.3 418.6,409.6 357.8,344.5   "
   id="polyline856"
   style="fill:none;stroke:#0342ac;stroke-width:2.11829996;stroke-miterlimit:10" />
		<polygon
   class="st2"
   points="446.7,336.9 422.2,404.9 417.4,329.9 "
   id="polygon858"
   style="fill:none;stroke:#0342ac;stroke-width:2.11829996;stroke-miterlimit:10" />
		<polygon
   class="st2"
   points="500.3,397 444.2,336.2 478.4,336.9 "
   id="polygon860"
   style="fill:none;stroke:#0342ac;stroke-width:2.11829996;stroke-miterlimit:10" />
		<polyline
   class="st2"
   points="446,338.4 491.3,438.4 499.2,399.9   "
   id="polyline862"
   style="fill:none;stroke:#0342ac;stroke-width:2.11829996;stroke-miterlimit:10" />
		<polyline
   class="st2"
   points="423,407.8 491,440.5 512.2,426.9 528.6,345.7 508.9,355.6 489.9,337.3 499.2,393.8   "
   id="polyline864"
   style="fill:none;stroke:#0342ac;stroke-width:2.11829996;stroke-miterlimit:10" />
		<line
   class="st2"
   x1="514.70001"
   y1="322.5"
   x2="501"
   y2="393.79999"
   id="line866"
   style="fill:none;stroke:#0342ac;stroke-width:2.11829996;stroke-miterlimit:10" />
		<polyline
   class="st2"
   points="498.2,397 512.2,426.9 532,449.5   "
   id="polyline868"
   style="fill:none;stroke:#0342ac;stroke-width:2.11829996;stroke-miterlimit:10" />
		<line
   class="st2"
   x1="516.5"
   y1="318.89999"
   x2="541"
   y2="318.60001"
   id="line870"
   style="fill:none;stroke:#0342ac;stroke-width:2.11829996;stroke-miterlimit:10" />
		<circle
   class="st3"
   cx="397.89999"
   cy="215.2"
   r="6.8000002"
   id="circle872"
   style="fill:#0342ac" />
		<circle
   class="st3"
   cx="481.89999"
   cy="185.3"
   r="6.8000002"
   id="circle874"
   style="fill:#0342ac" />
		<circle
   class="st3"
   cx="530"
   cy="244.60001"
   r="6.8000002"
   id="circle876"
   style="fill:#0342ac" />
		<circle
   class="st3"
   cx="513.70001"
   cy="318.70001"
   r="6.8000002"
   id="circle878"
   style="fill:#0342ac" />
		<circle
   class="st3"
   cx="500.39999"
   cy="398.5"
   r="6.8000002"
   id="circle880"
   style="fill:#0342ac" />
		<circle
   class="st3"
   cx="419.89999"
   cy="408.29999"
   r="6.8000002"
   id="circle882"
   style="fill:#0342ac" />
		<circle
   class="st3"
   cx="354.29999"
   cy="342.70001"
   r="6.8000002"
   id="circle884"
   style="fill:#0342ac" />
		<circle
   class="st3"
   cx="377.5"
   cy="299.39999"
   r="6.8000002"
   id="circle886"
   style="fill:#0342ac" />
		<circle
   class="st3"
   cx="344.20001"
   cy="270.39999"
   r="6.8000002"
   id="circle888"
   style="fill:#0342ac" />
		<circle
   class="st3"
   cx="373"
   cy="447.60001"
   r="6.8000002"
   id="circle890"
   style="fill:#0342ac" />
	</g>
	<g
   id="g966">
		<polyline
   class="st2"
   points="575,181.7 532.5,124.2 587.9,125.7 664,162.3 716.5,267.2   "
   id="polyline894"
   style="fill:none;stroke:#0342ac;stroke-width:2.11829996;stroke-miterlimit:10" />
		<line
   class="st2"
   x1="576.79999"
   y1="179.7"
   x2="586.20001"
   y2="125.2"
   id="line896"
   style="fill:none;stroke:#0342ac;stroke-width:2.11829996;stroke-miterlimit:10" />
		<line
   class="st2"
   x1="662.90002"
   y1="161.8"
   x2="583.5"
   y2="184.7"
   id="line898"
   style="fill:none;stroke:#0342ac;stroke-width:2.11829996;stroke-miterlimit:10" />
		<line
   class="st2"
   x1="664.70001"
   y1="163.60001"
   x2="662.09998"
   y2="213.2"
   id="line900"
   style="fill:none;stroke:#0342ac;stroke-width:2.11829996;stroke-miterlimit:10" />
		<line
   class="st2"
   x1="715.09998"
   y1="268.39999"
   x2="663.59998"
   y2="216.60001"
   id="line902"
   style="fill:none;stroke:#0342ac;stroke-width:2.11829996;stroke-miterlimit:10" />
		<line
   class="st2"
   x1="682.5"
   y1="296.20001"
   x2="662.5"
   y2="217.89999"
   id="line904"
   style="fill:none;stroke:#0342ac;stroke-width:2.11829996;stroke-miterlimit:10" />
		<polyline
   class="st2"
   points="662.3,215.6 646,273.3 534.9,244.6   "
   id="polyline906"
   style="fill:none;stroke:#0342ac;stroke-width:2.11829996;stroke-miterlimit:10" />
		<line
   class="st2"
   x1="658.20001"
   y1="213.60001"
   x2="533.59998"
   y2="242.8"
   id="line908"
   style="fill:none;stroke:#0342ac;stroke-width:2.11829996;stroke-miterlimit:10" />
		<line
   class="st2"
   x1="658.90002"
   y1="211.8"
   x2="580.09998"
   y2="186"
   id="line910"
   style="fill:none;stroke:#0342ac;stroke-width:2.11829996;stroke-miterlimit:10" />
		<line
   class="st2"
   x1="576.59998"
   y1="185.3"
   x2="531.90002"
   y2="242.60001"
   id="line912"
   style="fill:none;stroke:#0342ac;stroke-width:2.11829996;stroke-miterlimit:10" />
		<line
   class="st2"
   x1="578.09998"
   y1="183.5"
   x2="472.29999"
   y2="183.5"
   id="line914"
   style="fill:none;stroke:#0342ac;stroke-width:2.11829996;stroke-miterlimit:10" />
		<line
   class="st2"
   x1="716.29999"
   y1="270.29999"
   x2="685.59998"
   y2="299.89999"
   id="line916"
   style="fill:none;stroke:#0342ac;stroke-width:2.11829996;stroke-miterlimit:10" />
		<line
   class="st2"
   x1="717.70001"
   y1="271.5"
   x2="708.59998"
   y2="342.20001"
   id="line918"
   style="fill:none;stroke:#0342ac;stroke-width:2.11829996;stroke-miterlimit:10" />
		<line
   class="st2"
   x1="705.5"
   y1="341.39999"
   x2="684.40002"
   y2="301.29999"
   id="line920"
   style="fill:none;stroke:#0342ac;stroke-width:2.11829996;stroke-miterlimit:10" />
		<polyline
   class="st2"
   points="646,273.3 680.2,299.3 642.9,329.7 702.9,342.2   "
   id="polyline922"
   style="fill:none;stroke:#0342ac;stroke-width:2.11829996;stroke-miterlimit:10" />
		<polyline
   class="st2"
   points="678.8,298.5 572.4,298.8 534.1,246.7   "
   id="polyline924"
   style="fill:none;stroke:#0342ac;stroke-width:2.11829996;stroke-miterlimit:10" />
		<polyline
   class="st2"
   points="530.5,247.8 530.2,299.3 532.9,299.3 572.4,298.8 569.3,337.7 550.5,321.5 529.9,299.5   "
   id="polyline926"
   style="fill:none;stroke:#0342ac;stroke-width:2.11829996;stroke-miterlimit:10" />
		<polyline
   class="st2"
   points="707.2,345.7 687.7,451.2 641.7,409.4 702.5,344.3   "
   id="polyline928"
   style="fill:none;stroke:#0342ac;stroke-width:2.11829996;stroke-miterlimit:10" />
		<polygon
   class="st2"
   points="613.6,336.7 638.1,404.7 642.9,329.7 "
   id="polygon930"
   style="fill:none;stroke:#0342ac;stroke-width:2.11829996;stroke-miterlimit:10" />
		<polygon
   class="st2"
   points="560,396.8 616.1,336 582,336.7 "
   id="polygon932"
   style="fill:none;stroke:#0342ac;stroke-width:2.11829996;stroke-miterlimit:10" />
		<polyline
   class="st2"
   points="614.3,338.2 569,438.2 561.1,399.7   "
   id="polyline934"
   style="fill:none;stroke:#0342ac;stroke-width:2.11829996;stroke-miterlimit:10" />
		<polyline
   class="st2"
   points="637.4,407.6 569.4,440.4 548.1,426.7 531.5,345.6 551.4,355.5 570.5,337.1 561.1,393.6   "
   id="polyline936"
   style="fill:none;stroke:#0342ac;stroke-width:2.11829996;stroke-miterlimit:10" />
		<line
   class="st2"
   x1="545.59998"
   y1="322.39999"
   x2="559.29999"
   y2="393.60001"
   id="line938"
   style="fill:none;stroke:#0342ac;stroke-width:2.11829996;stroke-miterlimit:10" />
		<polyline
   class="st2"
   points="562.2,396.8 548.1,426.7 528.4,449.4   "
   id="polyline940"
   style="fill:none;stroke:#0342ac;stroke-width:2.11829996;stroke-miterlimit:10" />
		<line
   class="st2"
   x1="543.79999"
   y1="318.79999"
   x2="519.40002"
   y2="318.39999"
   id="line942"
   style="fill:none;stroke:#0342ac;stroke-width:2.11829996;stroke-miterlimit:10" />
		<circle
   class="st3"
   cx="662.5"
   cy="215"
   r="6.8000002"
   id="circle944"
   style="fill:#0342ac" />
		<circle
   class="st3"
   cx="578.40002"
   cy="185.10001"
   r="6.8000002"
   id="circle946"
   style="fill:#0342ac" />
		<circle
   class="st3"
   cx="530.29999"
   cy="244.39999"
   r="6.8000002"
   id="circle948"
   style="fill:#0342ac" />
		<circle
   class="st3"
   cx="546.59998"
   cy="318.60001"
   r="6.8000002"
   id="circle950"
   style="fill:#0342ac" />
		<circle
   class="st3"
   cx="559.90002"
   cy="398.29999"
   r="6.8000002"
   id="circle952"
   style="fill:#0342ac" />
		<circle
   class="st3"
   cx="640.5"
   cy="408.10001"
   r="6.8000002"
   id="circle954"
   style="fill:#0342ac" />
		<circle
   class="st3"
   cx="706.09998"
   cy="342.5"
   r="6.8000002"
   id="circle956"
   style="fill:#0342ac" />
		<circle
   class="st3"
   cx="682.79999"
   cy="299.29999"
   r="6.8000002"
   id="circle958"
   style="fill:#0342ac" />
		<circle
   class="st3"
   cx="716.20001"
   cy="270.20001"
   r="6.8000002"
   id="circle960"
   style="fill:#0342ac" />
		<circle
   class="st3"
   cx="687.29999"
   cy="447.39999"
   r="6.8000002"
   id="circle962"
   style="fill:#0342ac" />
		<circle
   class="st3"
   cx="530.70001"
   cy="446.29999"
   r="6.8000002"
   id="circle964"
   style="fill:#0342ac" />
	</g>
	<line
   class="st2"
   x1="414.29999"
   y1="273.39999"
   x2="377.5"
   y2="299.39999"
   id="line968"
   style="fill:none;stroke:#0342ac;stroke-width:2.11829996;stroke-miterlimit:10" />
</g>
<g
   id="Layer_3"
   transform="translate(-295.34936,-83.649355)">
	<polyline
   class="st4"
   points="663.5,89.1 745.8,89.1 745.8,171  "
   id="polyline971"
   style="fill:none;stroke:#6ca0f9;stroke-width:7.90049982;stroke-linecap:round;stroke-miterlimit:10" />
	<polyline
   class="st4"
   points="745.1,578.9 745.1,661.3 663.2,661.3  "
   id="polyline973"
   style="fill:none;stroke:#6ca0f9;stroke-width:7.90049982;stroke-linecap:round;stroke-miterlimit:10" />
	<polyline
   class="st4"
   points="382,87.6 299.6,87.6 299.6,169.6  "
   id="polyline975"
   style="fill:none;stroke:#6ca0f9;stroke-width:7.90049982;stroke-linecap:round;stroke-miterlimit:10" />
	<polyline
   class="st4"
   points="299.3,577.4 299.3,659.8 381.3,659.8  "
   id="polyline977"
   style="fill:none;stroke:#6ca0f9;stroke-width:7.90049982;stroke-linecap:round;stroke-miterlimit:10" />
</g>
<g
   id="Layer_5"
   transform="translate(-295.34936,-83.649355)">
</g>
<g
   id="Layer_6"
   transform="translate(-295.34936,-83.649355)">
	<path
   class="st5"
   d="m 459.5,605.3 c 0,0 71.1,34.2 134.6,7.8"
   id="path981"
   inkscape:connector-curvature="0"
   style="fill:none;stroke:#0342ac;stroke-width:6.25400019;stroke-linecap:round;stroke-miterlimit:10" />
	<path
   class="st5"
   d="m 582.6,487.6 c 0,34.3 -25.2,62.1 -56.3,62.1 -31.1,0 -56.3,-27.8 -56.3,-62.1"
   id="path983"
   inkscape:connector-curvature="0"
   style="fill:none;stroke:#0342ac;stroke-width:6.25400019;stroke-linecap:round;stroke-miterlimit:10" />
	<path
   class="st5"
   d="m 532.9,571 c -2.4,0.2 -4.8,0.3 -7.3,0.3 -45.3,0 -82.1,-37 -82.1,-82.6"
   id="path985"
   inkscape:connector-curvature="0"
   style="fill:none;stroke:#0342ac;stroke-width:6.25400019;stroke-linecap:round;stroke-miterlimit:10" />
	<path
   class="st5"
   d="M 449,555.2 C 429.5,538 417.6,514.7 417.6,489.1"
   id="path987"
   inkscape:connector-curvature="0"
   style="fill:none;stroke:#0342ac;stroke-width:6.25400019;stroke-linecap:round;stroke-miterlimit:10" />
	<path
   class="st5"
   d="m 532.1,585.2 c -27.6,0 -53,-8.2 -72.7,-21.8"
   id="path989"
   inkscape:connector-curvature="0"
   style="fill:none;stroke:#0342ac;stroke-width:6.25400019;stroke-linecap:round;stroke-miterlimit:10" />
	<path
   class="st5"
   d="m 646.7,489.2 c 0,10.7 -2.1,21 -6,30.7 -4.5,11.2 -11.3,21.4 -20.1,30.3 -11.6,11.8 -26.5,21.3 -43.5,27.4 -10.9,3.9 -22.6,6.4 -34.9,7.3"
   id="path991"
   inkscape:connector-curvature="0"
   style="fill:none;stroke:#0342ac;stroke-width:6.25400019;stroke-linecap:round;stroke-miterlimit:10" />
	<path
   class="st5"
   d="M 522.6,606.4 C 454.5,601.2 401,550.5 401,488.8"
   id="path993"
   inkscape:connector-curvature="0"
   style="fill:none;stroke:#0342ac;stroke-width:6.25400019;stroke-linecap:round;stroke-miterlimit:10" />
	<path
   class="st5"
   d="m 667.4,488.8 c 0,48.7 -33.3,90.5 -80.8,108.6 -12.6,4.8 -26.3,7.9 -40.6,9"
   id="path995"
   inkscape:connector-curvature="0"
   style="fill:none;stroke:#0342ac;stroke-width:6.25400019;stroke-linecap:round;stroke-miterlimit:10" />
	<path
   class="st5"
   d="m 554.6,492 c 0,21.3 -13.2,38.6 -29.6,38.6 -16.3,0 -29.6,-17.3 -29.6,-38.6"
   id="path997"
   inkscape:connector-curvature="0"
   style="fill:none;stroke:#0342ac;stroke-width:6.25400019;stroke-linecap:round;stroke-miterlimit:10" />
	<path
   class="st5"
   d="M 369.3,557.4"
   id="path999"
   inkscape:connector-curvature="0"
   style="fill:none;stroke:#0342ac;stroke-width:6.25400019;stroke-linecap:round;stroke-miterlimit:10" />
	<path
   class="st5"
   d="m 380.5,488.3 c 0,0 4.3,86.1 62.7,108.2"
   id="path1001"
   inkscape:connector-curvature="0"
   style="fill:none;stroke:#0342ac;stroke-width:6.25400019;stroke-linecap:round;stroke-miterlimit:10" />
	<path
   class="st5"
   d="m 531.4,492 c 0,0 -6.4,4.4 -1,21"
   id="path1003"
   inkscape:connector-curvature="0"
   style="fill:none;stroke:#0342ac;stroke-width:6.25400019;stroke-linecap:round;stroke-miterlimit:10" />
	<path
   class="st5"
   d="m 610.7,607.3 c 0,0 52.7,-13.7 65.1,-75.5"
   id="path1005"
   inkscape:connector-curvature="0"
   style="fill:none;stroke:#0342ac;stroke-width:6.25400019;stroke-linecap:round;stroke-miterlimit:10" />
	<path
   class="st5"
   d="m 684.3,490.3 c 0,0 -1.7,18.7 -4,28.1"
   id="path1007"
   inkscape:connector-curvature="0"
   style="fill:none;stroke:#0342ac;stroke-width:6.25400019;stroke-linecap:round;stroke-miterlimit:10" />
	<g
   id="g1017">
		<g
   id="g1015">
			<line
   class="st6"
   x1="299.39999"
   y1="466.10001"
   x2="312.10001"
   y2="466.10001"
   id="line1009"
   style="fill:none;stroke:#6da0f8;stroke-width:7;stroke-linecap:round;stroke-miterlimit:10" />
			<line
   class="st7"
   x1="336.79999"
   y1="466.10001"
   x2="719.70001"
   y2="466.10001"
   id="line1011"
   style="fill:none;stroke:#6da0f8;stroke-width:7;stroke-linecap:round;stroke-miterlimit:10;stroke-dasharray:24.7002, 24.7002" />
			<line
   class="st6"
   x1="732"
   y1="466.10001"
   x2="744.70001"
   y2="466.10001"
   id="line1013"
   style="fill:none;stroke:#6da0f8;stroke-width:7;stroke-linecap:round;stroke-miterlimit:10" />
		</g>
	</g>
	<path
   class="st5"
   d="m 556.9,564.6 c 6.7,-0.6 3.5,-0.5 9.9,-2.4 6,-1.8 11.9,-4.3 16.8,-8.2 5.3,-4.3 9.2,-10 12.4,-16 6.3,-11.7 10.3,-24.5 11.9,-37.6 0.4,-3.4 0.7,-6.8 2.1,-9.9 1.4,-3.1 14,-7.2 17.5,-7.5"
   id="path1019"
   inkscape:connector-curvature="0"
   style="fill:none;stroke:#0342ac;stroke-width:6.25400019;stroke-linecap:round;stroke-miterlimit:10" />
</g>
<g
   id="Layer_7"
   transform="translate(-295.34936,-83.649355)">
</g>
<g
   id="Layer_4"
   transform="translate(-295.34936,-83.649355)">
</g>
</svg>